<?xml version="1.0" encoding="utf-8"?>
<!-- Generator: Adobe Illustrator 20.1.0, SVG Export Plug-In . SVG Version: 6.00 Build 0)  -->
<svg version="1.1" id="Capa_1" xmlns="http://www.w3.org/2000/svg" xmlns:xlink="http://www.w3.org/1999/xlink" x="0px" y="0px"
	 viewBox="0 0 174.6 348" style="enable-background:new 0 0 174.6 348;" xml:space="preserve">
<style type="text/css">
	.st0{fill:#BEACCE;}
	.st1{fill:none;}
	.st2{fill:#663399;}
	.st3{fill:#DFD5E6;}
</style>
<g>
	<g>
		<path class="st0" d="M75.4,67.4c-2.1,0-4.2-0.8-5.8-2.4L52.4,47.7c-1.5-1.5-2.4-3.6-2.4-5.8c0-2.2,0.8-4.2,2.4-5.8l17.3-17.3
			c3.2-3.2,8.3-3.2,11.5,0l17.3,17.3c1.5,1.5,2.4,3.6,2.4,5.8c0,2.2-0.8,4.2-2.4,5.8L81.2,65C79.6,66.6,77.5,67.4,75.4,67.4z
			 M75.4,59.2L75.4,59.2l17.3-17.3L75.4,24.6L58.1,41.9L75.4,59.2z"/>
	</g>
	<polygon class="st1" points="101.2,321.1 101.2,321.1 123.1,299.3 67.4,243.5 45.5,265.4 	"/>
	
		<rect x="102.1" y="209.3" transform="matrix(0.7071 -0.7071 0.7071 0.7071 -141.3278 156.2398)" class="st1" width="31.6" height="78.8"/>
	<path class="st2" d="M162.7,259.6L107,203.9c-3.2-3.2-8.3-3.2-11.5,0l-22.3,22.3l5.8,5.8l22.3-22.3l55.7,55.7l-22.3,22.3
		l-11.5,11.5l-21.9,21.9l0,0l-55.7-55.7l21.9-21.9l-5.8-5.8l-21.9,21.9c-1.5,1.5-2.4,3.6-2.4,5.8c0,2.2,0.8,4.2,2.4,5.8l55.7,55.7
		c1.6,1.6,3.7,2.4,5.8,2.4c2.1,0,4.2-0.8,5.8-2.4l21.9-21.9l11.5-11.5l22.3-22.3c1.5-1.5,2.4-3.6,2.4-5.8
		C165.1,263.2,164.2,261.2,162.7,259.6z"/>
	<g>
		<path class="st3" d="M163.1,8.8L9.4,162.5c-3.1,3.1-4.8,7.2-4.8,11.5c0,4.4,1.7,8.5,4.8,11.5l52.2,52.2l5.8,5.8l55.7,55.7
			l11.5-11.5L78.9,232l-5.8-5.8L20.9,174L174.6,20.3V4C170.4,4,166.3,5.6,163.1,8.8z"/>
		<path class="st3" d="M128.9,305l34.2,34.2h0c3.2,3.2,7.3,4.8,11.5,4.8h0v-16.3l-34.2-34.2L128.9,305z"/>
	</g>
</g>
</svg>
