<svg xmlns="http://www.w3.org/2000/svg" viewBox="0 0 223.54 175"><defs><style>.cls-1{fill:#dfd5e6;}.cls-2{fill:#639;}</style></defs><title>Recurso 3</title><g id="Capa_2" data-name="Capa 2"><g id="Capa_1-2" data-name="Capa 1"><path class="cls-1" d="M223.54,175h0Z"/><path class="cls-1" d="M217.93,157,66.68,5.61A7.72,7.72,0,0,1,64.54,0H48.19s0,0,0,0a23.72,23.72,0,0,0,7,16.9L206.62,168.19A23.67,23.67,0,0,0,223.54,175V159.35A7.94,7.94,0,0,1,217.93,157Z"/><path class="cls-2" d="M8,0a3.16,3.16,0,0,0,.5,1.27l54.17,54.2a1.71,1.71,0,0,0,1.2.51,1.68,1.68,0,0,0,1.2-.49L119.23,1.27a3.14,3.14,0,0,0,.5-1.27h8a10.73,10.73,0,0,1-2.84,6.93L70.72,61.13a9.71,9.71,0,0,1-13.71,0L2.84,6.92A10.71,10.71,0,0,1,0,0Z"/></g></g></svg>