<svg xmlns="http://www.w3.org/2000/svg" viewBox="0 0 175.44 175"><defs><style>.cls-1{fill:none;}.cls-2{fill:#beacce;}.cls-3{fill:#dfd5e6;}</style></defs><title>Recurso 1</title><g id="Capa_2" data-name="Capa 2"><g id="Capa_1-2" data-name="Capa 1"><rect class="cls-1" x="84.64" y="25.79" width="24" height="24" transform="translate(1.58 79.41) rotate(-45)"/><path class="cls-2" d="M92.35,61.78a6.08,6.08,0,0,0,8.59,0l19.7-19.7a6.08,6.08,0,0,0,0-8.59l-19.7-19.7a6.08,6.08,0,0,0-8.59,0L72.65,33.5a6.07,6.07,0,0,0,0,8.59Zm4.29-41,17,17-17,17-17-17Z"/><path class="cls-3" d="M168.44,158.23,17,6.91A23.68,23.68,0,0,0,.1,0H0V16H.1a7.89,7.89,0,0,1,5.61,2.33L157.13,169.54a7.51,7.51,0,0,1,2.32,5.46h16A23.61,23.61,0,0,0,168.44,158.23Z"/></g></g></svg>