<svg xmlns="http://www.w3.org/2000/svg" viewBox="0 0 175.44 180.37"><defs><style>.cls-1{fill:none;}.cls-2{fill:#dfd5e6;}.cls-3{fill:#639;}</style></defs><title>Recurso 2</title><g id="Capa_2" data-name="Capa 2"><g id="Capa_1-2" data-name="Capa 1"><path class="cls-1" d="M69,171.88a1.7,1.7,0,0,0,2.4,0l54.17-54.17a1.7,1.7,0,0,0,0-2.4L98,87.72,41.45,144.29Z"/><path class="cls-1" d="M70.24,60.65a1.69,1.69,0,0,0-1.2.5L14.88,115.31a1.7,1.7,0,0,0,0,2.4L30.14,133,86.71,76.4,71.44,61.14A1.69,1.69,0,0,0,70.24,60.65Z"/><path class="cls-2" d="M30.14,133l-5.66,5.66L5.66,157.4A8.08,8.08,0,0,1,0,159.72V176H.1A24,24,0,0,0,17,168.86L35.8,150l5.66-5.69L98,87.74,86.71,76.41Z"/><path class="cls-3" d="M131.27,109.65,103.68,82.06,92.36,70.75,77.1,55.49a9.71,9.71,0,0,0-13.71,0L9.22,109.65a9.71,9.71,0,0,0,0,13.71l15.26,15.26L30.14,133,14.88,117.71a1.7,1.7,0,0,1,0-2.4L69,61.14a1.7,1.7,0,0,1,2.4,0L86.71,76.4,98,87.72l27.59,27.59a1.7,1.7,0,0,1,0,2.4L71.44,171.88a1.7,1.7,0,0,1-2.4,0L41.45,144.29l-5.66,5.66,27.59,27.59a9.71,9.71,0,0,0,13.71,0l54.17-54.17A9.71,9.71,0,0,0,131.27,109.65Z"/><path class="cls-2" d="M157.13,5.76,92.36,70.64,103.68,82l64.77-65a22.83,22.83,0,0,0,7-17h-16A8.43,8.43,0,0,1,157.13,5.76Z"/></g></g></svg>