<svg xmlns="http://www.w3.org/2000/svg" viewBox="0 0 223.54 175"><defs><style>.cls-1{fill:#dfd5e6;}.cls-2{fill:#639;}</style></defs><title>Recurso 4</title><g id="Capa_2" data-name="Capa 2"><g id="Capa_1-2" data-name="Capa 1"><path class="cls-1" d="M55.2,158.05a23.72,23.72,0,0,0-7,16.9s0,0,0,0H64.54a7.72,7.72,0,0,1,2.15-5.61l24.05-24.08L79.35,133.93Z"/><path class="cls-2" d="M119.23,173.8a3,3,0,0,1,.5,1.2h8a10.56,10.56,0,0,0-2.84-6.86L96.39,139.65l-5.65,5.66Z"/><path class="cls-2" d="M70.72,114A9.71,9.71,0,0,0,57,114L2.84,168.14A10.56,10.56,0,0,0,0,175H8a3,3,0,0,1,.5-1.2l54.17-54.17a1.7,1.7,0,0,1,2.4,0l14.29,14.29L85,128.27Z"/><path class="cls-1" d="M85,128.27l11.37,11.38L217.93,18a7.94,7.94,0,0,1,5.61-2.32V0a23.67,23.67,0,0,0-16.92,6.81Z"/><polygon class="cls-1" points="79.36 133.93 90.74 145.31 96.39 139.65 85.02 128.27 79.36 133.93"/></g></g></svg>