<svg width="32" height="32" viewBox="0 0 32 32" fill="none" xmlns="http://www.w3.org/2000/svg">
<path fill-rule="evenodd" clip-rule="evenodd" d="M1.77734 16.0001C1.77734 8.14228 8.14179 1.77783 15.9996 1.77783C23.8573 1.77783 30.2218 8.14228 30.2218 16.0001C30.2218 23.8578 23.8573 30.2223 15.9996 30.2223C8.14179 30.2223 1.77734 23.8578 1.77734 16.0001ZM15.9996 13.4405L10.6663 8.10715L8.10628 10.6671L13.4396 16.0005L8.10628 21.3338L10.6663 23.8938L15.9996 18.5605L21.3329 23.8938L23.8929 21.3338L18.5596 16.0005L23.8929 10.6671L21.3329 8.10715L15.9996 13.4405Z" fill="#F5414F"/>
<mask id="mask0" mask-type="alpha" maskUnits="userSpaceOnUse" x="1" y="1" width="30" height="30">
<path fill-rule="evenodd" clip-rule="evenodd" d="M1.77734 16.0001C1.77734 8.14228 8.14179 1.77783 15.9996 1.77783C23.8573 1.77783 30.2218 8.14228 30.2218 16.0001C30.2218 23.8578 23.8573 30.2223 15.9996 30.2223C8.14179 30.2223 1.77734 23.8578 1.77734 16.0001ZM15.9996 13.4405L10.6663 8.10715L8.10628 10.6671L13.4396 16.0005L8.10628 21.3338L10.6663 23.8938L15.9996 18.5605L21.3329 23.8938L23.8929 21.3338L18.5596 16.0005L23.8929 10.6671L21.3329 8.10715L15.9996 13.4405Z" fill="white"/>
</mask>
<g mask="url(#mask0)">
<rect width="32" height="32" rx="4" fill="#F5414F"/>
</g>
</svg>
