<svg width="122" height="111" viewBox="0 0 122 111" fill="none" xmlns="http://www.w3.org/2000/svg">
<path d="M77 88.9922C101.301 88.9922 121 69.2927 121 44.9922C121 20.6917 101.301 0.992188 77 0.992188C52.6995 0.992188 33 20.6917 33 44.9922C33 69.2927 52.6995 88.9922 77 88.9922Z" fill="#F7F4F9"/>
<path d="M115.999 109.615H5.99951V97.7636V65.6519C5.99951 65.6519 12.1993 73.8636 60.9995 73.8636C109.8 73.8636 115.999 65.6519 115.999 65.6519V97.7636V109.615Z" fill="#DFD5E6"/>
<path d="M85 27.9878L1 27.9878C1 27.9878 0.999985 40.7062 0.999986 60.0598C0.999987 79.4135 121 78.0312 121 60.0598C121 42.0885 121 27.9878 121 27.9878L85 27.9878Z" stroke="#320055" stroke-width="2" stroke-miterlimit="10" stroke-linecap="round" stroke-linejoin="round"/>
<path d="M73 27.9878H49V23.9878V15.9878H73V23.9878V27.9878Z" stroke="#320055" stroke-width="2" stroke-miterlimit="10" stroke-linecap="round" stroke-linejoin="round"/>
<path d="M5.99957 76.5944L5.99957 109.615L115.999 109.615L116 66.5892" stroke="#320055" stroke-width="2" stroke-miterlimit="10" stroke-linecap="round" stroke-linejoin="round"/>
<path d="M66 78.0615H56V75.3949V70.0615H66V75.3949V78.0615Z" fill="#DFD5E6"/>
<path d="M66 78.0615H56V75.3949V70.0615H66V75.3949V78.0615Z" stroke="#320055" stroke-width="2" stroke-miterlimit="10" stroke-linecap="round" stroke-linejoin="round"/>
</svg>
