<svg width="122" height="110" viewBox="0 0 122 110" fill="none" xmlns="http://www.w3.org/2000/svg">
<path d="M61 100.992C88.6142 100.992 111 78.6064 111 50.9922C111 23.378 88.6142 0.992188 61 0.992188C33.3858 0.992188 11 23.378 11 50.9922C11 78.6064 33.3858 100.992 61 100.992Z" fill="#F7F4F9"/>
<path d="M105 39.3922L95.25 43.2922L89.225 45.7172L61 56.9922L32.775 45.7172L1 32.9922L61 8.99219L121 32.9922L111 36.9922L105 39.3922Z" fill="#DFD5E6"/>
<path d="M108 80.9922L111 106.992C109.225 108.342 107.1 108.992 105 108.992C102.9 108.992 100.775 108.342 99 106.992L102 80.9922C102.975 81.2672 104 81.3922 105 81.3922C106 81.3922 107.025 81.2672 108 80.9922Z" fill="white"/>
<path d="M109 75.5422C109 79.0922 108 80.9922 108 80.9922C107.025 81.2672 106 81.3922 105 81.3922C104 81.3922 102.975 81.2672 102 80.9922C102 80.9922 101 79.0922 101 75.5422C101 73.2922 102.625 70.9922 105 70.9922C107.375 70.9922 109 73.2672 109 75.5422Z" fill="white"/>
<path d="M91 52.9923L95 74.9923C85.05 82.9173 73.025 86.9923 61 86.9923C48.975 86.9923 36.95 82.8923 27 74.9923L31 52.9923L32.775 45.7173L61 56.9923L89.225 45.7173L91 52.9923Z" fill="#DFD5E6"/>
<path d="M111 36.9922L121 32.9922L61 8.99219L1 32.9922L32.775 45.7172L61 56.9922L89.225 45.7172L95.25 43.2922" stroke="#320055" stroke-width="2" stroke-miterlimit="10" stroke-linecap="round" stroke-linejoin="round"/>
<path d="M91 52.9922L95 74.9922C85.05 82.9172 73.025 86.9922 61 86.9922C48.975 86.9922 36.95 82.8922 27 74.9922L31 52.9922" stroke="#320055" stroke-width="2" stroke-miterlimit="10" stroke-linecap="round" stroke-linejoin="round"/>
<path d="M102 80.9922C102.975 81.2672 104 81.3922 105 81.3922C106 81.3922 107.025 81.2672 108 80.9922" stroke="#320055" stroke-width="2" stroke-miterlimit="10" stroke-linecap="round" stroke-linejoin="round"/>
<path d="M108 80.9922L111 106.992C109.225 108.342 107.1 108.992 105 108.992C102.9 108.992 100.775 108.342 99 106.992L102 80.9922C102 80.9922 101 79.0922 101 75.5422C101 73.2922 102.625 70.9922 105 70.9922C107.375 70.9922 109 73.2672 109 75.5422C109 79.0922 108 80.9922 108 80.9922Z" stroke="#320055" stroke-width="2" stroke-miterlimit="10" stroke-linecap="round" stroke-linejoin="round"/>
<path d="M105 70.9922V39.3922L61 30.9922" stroke="#320055" stroke-width="2" stroke-miterlimit="10" stroke-linecap="round" stroke-linejoin="round"/>
</svg>
