<svg width="122" height="111" viewBox="0 0 122 111" fill="none" xmlns="http://www.w3.org/2000/svg">
<path d="M77 88.9922C101.301 88.9922 121 69.2927 121 44.9922C121 20.6917 101.301 0.992188 77 0.992188C52.6995 0.992188 33 20.6917 33 44.9922C33 69.2927 52.6995 88.9922 77 88.9922Z" fill="#F7F4F9"/>
<path d="M49 89.5078L46.925 93.0078H37H1V5.00781H121V93.0078H85H75.075L73 89.5078L72.05 89.1578C72.5 88.0078 72.55 86.7828 72.2 85.6328C72.55 85.4578 72.85 85.2578 73.125 84.9828H81H107C107 81.6578 109.675 78.9828 113 78.9828V19.0078C109.675 19.0078 107 16.3328 107 13.0078H15.15C15.15 16.3328 12.475 19.0078 9.15 19.0078C9.1 19.0078 9.05 19.0078 9 18.9828V79.0328C9.05 79.0078 9.1 79.0078 9.15 79.0078C12.475 79.0078 15.15 81.6828 15.15 85.0078H41H48.15L48.65 84.8328C49 85.1578 49.375 85.4328 49.8 85.6578C49.45 86.8078 49.5 88.0328 49.95 89.1828L49 89.5078Z" fill="#F7F4F9"/>
<path d="M46.925 93.0077L49 89.5077L49.95 89.1577C50.2 89.7827 50.6 90.3827 51.1 90.9077C52.525 92.3327 54.55 92.7577 56.35 92.2077C57.225 93.8577 58.975 95.0077 61 95.0077L53 109.008L49 103.008H41L46.925 93.0077Z" fill="#DFD5E6"/>
<path d="M75 81.0079C75 82.6329 74.25 84.0579 73.125 85.0079C72.85 85.2579 72.55 85.4579 72.2 85.6579C72.55 86.8079 72.5 88.0329 72.05 89.1829C71.8 89.8079 71.4 90.4079 70.9 90.9329C69.45 92.3579 67.425 92.7829 65.65 92.2329C64.75 93.8579 63.025 95.0079 61 95.0079C58.975 95.0079 57.25 93.8579 56.35 92.2079C54.525 92.7579 52.5 92.3329 51.1 90.9079C50.575 90.3829 50.2 89.7829 49.95 89.1579C49.5 88.0079 49.45 86.7829 49.8 85.6329C49.375 85.4079 49 85.1329 48.65 84.8079C47.625 83.8579 47 82.5079 47 80.9829C47 78.9579 48.15 77.2329 49.8 76.3329C49.25 74.5329 49.675 72.4829 51.1 71.0829C52.55 69.6579 54.575 69.2329 56.35 69.7829C57.225 68.1329 58.975 66.9829 61 66.9829C63.025 66.9829 64.75 68.1329 65.65 69.7829C67.425 69.2329 69.475 69.6579 70.9 71.0829C72.325 72.5329 72.75 74.5329 72.2 76.3329C73.85 77.2579 75 78.9829 75 81.0079ZM67 81.0079C67 77.6829 64.325 75.0079 61 75.0079C57.675 75.0079 55 77.6829 55 81.0079C55 84.3329 57.675 87.0079 61 87.0079C64.325 87.0079 67 84.3329 67 81.0079Z" fill="#DFD5E6"/>
<path d="M75.075 93.0077L81 103.008H73L69 109.008L61 95.0077C63.025 95.0077 64.75 93.8577 65.65 92.2077C67.425 92.7577 69.475 92.3327 70.9 90.9077C71.4 90.3827 71.8 89.7827 72.05 89.1577L73 89.5077L75.075 93.0077Z" fill="#DFD5E6"/>
<path d="M37 29.0078V33.0078L45 41.0078H17L23 35.0078L17 29.0078H29H37Z" fill="#DFD5E6"/>
<path d="M99 35.0078L105 41.0078H77L85 33.0078V29.0078H93H105L99 35.0078Z" fill="#DFD5E6"/>
<path d="M85 33.0078H37V29.0078V21.0078H85V29.0078V33.0078Z" fill="#DFD5E6"/>
<path d="M85 93.0078H121V5.00781H1V93.0078H37" stroke="#320055" stroke-width="2" stroke-miterlimit="10" stroke-linecap="round" stroke-linejoin="round"/>
<path d="M81 85.0078H107C107 81.6828 109.675 79.0078 113 79.0078V19.0078C109.675 19.0078 107 16.3328 107 13.0078H15.15C15.15 16.3328 12.475 19.0078 9.15 19.0078C9.1 19.0078 9.05 19.0078 9 18.9828V79.0328C9.05 79.0078 9.1 79.0078 9.15 79.0078C12.475 79.0078 15.15 81.6828 15.15 85.0078H41" stroke="#320055" stroke-width="2" stroke-miterlimit="10" stroke-linecap="round" stroke-linejoin="round"/>
<path d="M85 33.0078H37V29.0078V21.0078H85V29.0078V33.0078Z" stroke="#320055" stroke-width="2" stroke-miterlimit="10" stroke-linecap="round" stroke-linejoin="round"/>
<path d="M85 33.0078L77 41.0078H105L99 35.0078L105 29.0078H93" stroke="#320055" stroke-width="2" stroke-miterlimit="10" stroke-linecap="round" stroke-linejoin="round"/>
<path d="M37 33.0078L45 41.0078H17L23 35.0078L17 29.0078H29" stroke="#320055" stroke-width="2" stroke-miterlimit="10" stroke-linecap="round" stroke-linejoin="round"/>
<path d="M73 49.0078H49" stroke="#949BA5" stroke-width="2" stroke-miterlimit="10" stroke-linecap="round" stroke-linejoin="round"/>
<path d="M101 73.0078H85" stroke="#949BA5" stroke-width="2" stroke-miterlimit="10" stroke-linecap="round" stroke-linejoin="round"/>
<path d="M21 73.0078H37" stroke="#949BA5" stroke-width="2" stroke-miterlimit="10" stroke-linecap="round" stroke-linejoin="round"/>
<path d="M81 59.0078H41" stroke="#949BA5" stroke-width="2" stroke-miterlimit="10" stroke-linecap="round" stroke-linejoin="round"/>
<path d="M67 81.0078C67 77.6828 64.325 75.0078 61 75.0078C57.675 75.0078 55 77.6828 55 81.0078C55 84.3328 57.675 87.0078 61 87.0078C64.325 87.0078 67 84.3328 67 81.0078Z" stroke="#320055" stroke-width="2" stroke-miterlimit="10" stroke-linecap="round" stroke-linejoin="round"/>
<path d="M73.125 85.0079C72.85 85.2579 72.55 85.4579 72.2 85.6579C72.55 86.8079 72.5 88.0329 72.05 89.1829C71.8 89.8079 71.4 90.4079 70.9 90.9329C69.45 92.3579 67.425 92.7829 65.65 92.2329C64.75 93.8579 63.025 95.0079 61 95.0079C58.975 95.0079 57.25 93.8579 56.35 92.2079C54.525 92.7579 52.5 92.3329 51.1 90.9079C50.575 90.3829 50.2 89.7829 49.95 89.1579C49.5 88.0079 49.45 86.7829 49.8 85.6329C49.375 85.4079 49 85.1329 48.65 84.8079C47.625 83.8579 47 82.5079 47 80.9829C47 78.9579 48.15 77.2329 49.8 76.3329C49.25 74.5329 49.675 72.4829 51.1 71.0829C52.55 69.6579 54.575 69.2329 56.35 69.7829C57.225 68.1329 58.975 66.9829 61 66.9829C63.025 66.9829 64.75 68.1329 65.65 69.7829C67.425 69.2329 69.475 69.6579 70.9 71.0829C72.325 72.5329 72.75 74.5329 72.2 76.3329C73.85 77.2079 75 78.9579 75 80.9829C75 82.6329 74.25 84.0579 73.125 85.0079Z" stroke="#320055" stroke-width="2" stroke-miterlimit="10" stroke-linecap="round" stroke-linejoin="round"/>
<path d="M61 95.0078L69 109.008L73 103.008H81L75.075 93.0078L73 89.5078" stroke="#320055" stroke-width="2" stroke-miterlimit="10" stroke-linecap="round" stroke-linejoin="round"/>
<path d="M61 95.0078L53 109.008L49 103.008H41L46.925 93.0078L49 89.5078" stroke="#320055" stroke-width="2" stroke-miterlimit="10" stroke-linecap="round" stroke-linejoin="round"/>
</svg>
