<?xml version="1.0" encoding="UTF-8"?><!DOCTYPE svg PUBLIC "-//W3C//DTD SVG 1.1//EN" "http://www.w3.org/Graphics/SVG/1.1/DTD/svg11.dtd"><svg xmlns="http://www.w3.org/2000/svg" xmlns:xlink="http://www.w3.org/1999/xlink" class="hide-svg"><defs><path d="M3 3v6.75L14.25 21 21 14.25 9.75 3H3zm4.5 2.25A2.257 2.257 0 019.75 7.5 2.257 2.257 0 017.5 9.75 2.257 2.257 0 015.25 7.5 2.257 2.257 0 017.5 5.25z" id="a"/></defs><symbol id="account-login" viewBox="0 0 24 24"><path d="M9.8 4v2.2h9v11.2h-9v2.2H21V4H9.8zM12 8.5v2.2H3V13h9v2.2l4.5-3.4L12 8.5z"/><path d="M9.8 4v2.2h9v11.2h-9v2.2H21V4H9.8zM12 8.5v2.2H3V13h9v2.2l4.5-3.4L12 8.5z"/></symbol><symbol id="arrow-left" viewBox="0 0 24 24"><path d="M9.5 6L2 12.3l7.5 6.2v-5H22V11H9.5z"/><path d="M9.5 6L2 12.3l7.5 6.2v-5H22V11H9.5z"/></symbol><symbol id="arrow-right" viewBox="0 0 24 24"><path d="M14.5 6v5H2v2.5h12.5v5l7.5-6.3z"/><path d="M14.5 6v5H2v2.5h12.5v5l7.5-6.3z"/></symbol><symbol id="briefcase" viewBox="0 0 24 24"><path d="M9.8 3C8.5 3 7.5 4 7.5 5.2v2.2H3.2c-.1.1-.2.2-.2.3v5.4c0 .6.5 1.1 1.1 1.1h15.7c.6 0 1.1-.5 1.1-1.1V7.7c0-.1-.1-.2-.2-.2h-4.3V5.2c0-1.2-1-2.2-2.2-2.2H9.8zm0 2.2h4.5v2.2H9.8V5.2zM3 16.3v4.5c0 .1.1.2.2.2h17.6c.1 0 .2-.1.2-.2v-4.5c-.4.1-.7.2-1.1.2H4.1c-.4 0-.7-.1-1.1-.2z"/><path d="M9.8 3C8.5 3 7.5 4 7.5 5.2v2.2H3.2c-.1.1-.2.2-.2.3v5.4c0 .6.5 1.1 1.1 1.1h15.7c.6 0 1.1-.5 1.1-1.1V7.7c0-.1-.1-.2-.2-.2h-4.3V5.2c0-1.2-1-2.2-2.2-2.2H9.8zm0 2.2h4.5v2.2H9.8V5.2zM3 16.3v4.5c0 .1.1.2.2.2h17.6c.1 0 .2-.1.2-.2v-4.5c-.4.1-.7.2-1.1.2H4.1c-.4 0-.7-.1-1.1-.2z"/></symbol><symbol id="calendar" viewBox="0 0 24 24"><path d="M21 5.2h-2.3v2.3h-3.4V5.2H8.6v2.3H5.3V5.2H3V21h18V5.2zm-2.2 13.6H5.3v-7.9h13.5v7.9zM7.5 3H6.4v3.4h1.1V3zm10.1 0h-1.1v3.4h1.1V3z"/></symbol><symbol id="camera" viewBox="0 0 24 24"><path d="M12.3 3c-.2 0-.3.1-.3.2L9.8 7.3c0 .1-.2.2-.3.2H6.4C4.5 7.5 3 9 3 10.9v9.9c0 .1.1.2.2.2h17.6c.1 0 .2-.1.2-.2V7.7c0-.1-.1-.2-.2-.2H19c-.1 0-.2-.1-.3-.2l-2.1-4.1c-.1-.1-.2-.2-.3-.2h-4zM6.4 9.8c.6 0 1.1.5 1.1 1.1S7.1 12 6.4 12s-1.1-.5-1.1-1.1.5-1.1 1.1-1.1zm7.9 0c2.5 0 4.5 2 4.5 4.5s-2 4.5-4.5 4.5-4.5-2-4.5-4.5 2-4.5 4.5-4.5zm0 2.2c-1.2 0-2.3 1-2.3 2.3s1 2.3 2.3 2.3 2.3-1 2.3-2.3-1.1-2.3-2.3-2.3z"/><path d="M12.3 3c-.2 0-.3.1-.3.2L9.8 7.3c0 .1-.2.2-.3.2H6.4C4.5 7.5 3 9 3 10.9v9.9c0 .1.1.2.2.2h17.6c.1 0 .2-.1.2-.2V7.7c0-.1-.1-.2-.2-.2H19c-.1 0-.2-.1-.3-.2l-2.1-4.1c-.1-.1-.2-.2-.3-.2h-4zM6.4 9.8c.6 0 1.1.5 1.1 1.1S7.1 12 6.4 12s-1.1-.5-1.1-1.1.5-1.1 1.1-1.1zm7.9 0c2.5 0 4.5 2 4.5 4.5s-2 4.5-4.5 4.5-4.5-2-4.5-4.5 2-4.5 4.5-4.5zm0 2.2c-1.2 0-2.3 1-2.3 2.3s1 2.3 2.3 2.3 2.3-1 2.3-2.3-1.1-2.3-2.3-2.3z"/></symbol><symbol id="caret-bottom" viewBox="0 0 24 24"><path d="M6 9l6 6 6-6z"/><path d="M6 9l6 6 6-6z"/></symbol><symbol id="chevron-bottom" viewBox="0 0 24 24"><path d="M7 7l-3 3 8 8 8-8-3-3-5 5z"/><path d="M7 7l-3 3 8 8 8-8-3-3-5 5z"/></symbol><symbol id="circle-x"><path fill-rule="evenodd" clip-rule="evenodd" d="M1.777 16C1.777 8.142 8.142 1.778 16 1.778c7.857 0 14.222 6.364 14.222 14.222S23.857 30.222 16 30.222C8.142 30.222 1.777 23.858 1.777 16zM16 13.44l-5.334-5.333-2.56 2.56L13.44 16l-5.334 5.334 2.56 2.56L16 18.56l5.333 5.333 2.56-2.56L18.56 16l5.333-5.333-2.56-2.56L16 13.441z"/><mask id="a" maskUnits="userSpaceOnUse" x="1" y="1" width="30" height="30"><path fill-rule="evenodd" clip-rule="evenodd" d="M1.777 16C1.777 8.142 8.142 1.778 16 1.778c7.857 0 14.222 6.364 14.222 14.222S23.857 30.222 16 30.222C8.142 30.222 1.777 23.858 1.777 16zM16 13.44l-5.334-5.333-2.56 2.56L13.44 16l-5.334 5.334 2.56 2.56L16 18.56l5.333 5.333 2.56-2.56L18.56 16l5.333-5.333-2.56-2.56L16 13.441z"/></mask><g mask="url(#a)"><rect width="32" height="32" rx="4"/></g></symbol><symbol id="clock"><path fill-rule="evenodd" clip-rule="evenodd" d="M12 1.598c-5.867 0-10.667 4.8-10.667 10.666 0 5.867 4.8 10.667 10.667 10.667s10.667-4.8 10.667-10.667c0-5.866-4.8-10.666-10.667-10.666zm0 2.666c4.427 0 8 3.574 8 8 0 4.427-3.573 8-8 8a7.99 7.99 0 01-8-8c0-4.426 3.573-8 8-8zm-1.333 8.587V6.984h2.666v4.827l.907.907 1.013.906-1.92 1.92-.906-1.013-1.334-1.333-.426-.347z"/><mask id="a" style="mask-type:alpha" maskUnits="userSpaceOnUse" x="1" y="1" width="22" height="22"><path fill-rule="evenodd" clip-rule="evenodd" d="M12 1.598c-5.867 0-10.667 4.8-10.667 10.666 0 5.867 4.8 10.667 10.667 10.667s10.667-4.8 10.667-10.667c0-5.866-4.8-10.666-10.667-10.666zm0 2.666c4.427 0 8 3.574 8 8 0 4.427-3.573 8-8 8a7.99 7.99 0 01-8-8c0-4.426 3.573-8 8-8zm-1.333 8.587V6.984h2.666v4.827l.907.907 1.013.906-1.92 1.92-.906-1.013-1.334-1.333-.426-.347z"/></mask><g mask="url(#a)"><rect y=".264" width="24" height="24" rx="4"/></g></symbol><symbol id="cloud-download"><path fill-rule="evenodd" clip-rule="evenodd" d="M7.032 7.318c.614-3.04 3.44-5.334 6.667-5.334a6.669 6.669 0 016.667 6.667v1.333c1.546.56 2.666 2.267 2.666 4 0 .48-.08.907-.24 1.334H17.7v-1.334c0-2.213-1.787-4-4-4s-4 1.787-4 4v1.334H2.446a5.264 5.264 0 01-.747-2.667c0-2.933 2.4-5.333 5.333-5.333zm5.334 6.666a1.333 1.333 0 01.906-1.333h.027c.053-.003.107-.003.16 0a1.334 1.334 0 011.573 1.333v4h4L13.7 23.318l-5.333-5.334h4v-4z"/></symbol><symbol id="cloud-upload"><path d="M13.903 1.918c-3.226 0-6.053 2.293-6.666 5.333-2.934 0-5.334 2.4-5.334 5.334 0 .986.294 1.893.747 2.666h5.92l5.333-5.333 5.334 5.333h3.76c.16-.426.24-.853.24-1.333 0-1.733-1.12-3.44-2.667-4V8.585a6.67 6.67 0 00-6.667-6.667z"/><path d="M13.903 13.918l-6.666 6.667h5.333v1.333a1.333 1.333 0 002.667 0v-1.333h5.333l-6.667-6.667z"/></symbol><symbol id="document"><path fill-rule="evenodd" clip-rule="evenodd" d="M3.341 1.614v21.333h18.667V12.28H11.341V1.614h-8zm10.667 0v8h8l-8-8zM8.675 6.947H6.008v2.667h2.667V6.947zM6.008 12.28h2.667v2.667H6.008V12.28zm10.667 8v-2.666H6.008v2.666h10.667z"/></symbol><symbol id="envelope-closed" viewBox="0 0 24 24"><path d="M3 5v2.2l9 4.5 9-4.5V5H3zm0 4.5v9h18v-9L12 14 3 9.5z"/><path d="M3 5v2.2l9 4.5 9-4.5V5H3zm0 4.5v9h18v-9L12 14 3 9.5z"/></symbol><symbol id="eye"><path fill-rule="evenodd" clip-rule="evenodd" d="M12.386 4.91c-6.746 0-10.746 8-10.746 8s4 8 10.746 8c6.587 0 10.587-8 10.587-8s-4-8-10.587-8zm-.08 2.667c2.96 0 5.334 2.4 5.334 5.334a5.315 5.315 0 01-5.334 5.333 5.332 5.332 0 01-5.333-5.333c0-2.934 2.4-5.334 5.333-5.334zM9.64 12.911c0-1.467 1.2-2.667 2.666-2.667.267 0 .507.08.747.16-.427.213-.747.64-.747 1.173a1.32 1.32 0 001.334 1.334c.533 0 .96-.32 1.173-.747.017.076.04.152.062.23.048.165.098.335.098.517 0 1.466-1.2 2.666-2.667 2.666a2.675 2.675 0 01-2.666-2.666z"/><mask id="a" maskUnits="userSpaceOnUse" x="1" y="4" width="22" height="17"><path fill-rule="evenodd" clip-rule="evenodd" d="M12.386 4.91c-6.746 0-10.746 8-10.746 8s4 8 10.746 8c6.587 0 10.587-8 10.587-8s-4-8-10.587-8zm-.08 2.667c2.96 0 5.334 2.4 5.334 5.334a5.315 5.315 0 01-5.334 5.333 5.332 5.332 0 01-5.333-5.333c0-2.934 2.4-5.334 5.333-5.334zM9.64 12.911c0-1.467 1.2-2.667 2.666-2.667.267 0 .507.08.747.16-.427.213-.747.64-.747 1.173a1.32 1.32 0 001.334 1.334c.533 0 .96-.32 1.173-.747.017.076.04.152.062.23.048.165.098.335.098.517 0 1.466-1.2 2.666-2.667 2.666a2.675 2.675 0 01-2.666-2.666z"/></mask></symbol><symbol id="facebook" viewBox="0 0 24 24"><path d="M13.6 21v-9h2.5l.3-3.1h-2.8V7.3c0-.8.1-1.2 1.2-1.2h1.6V3h-2.5c-3 0-4 1.5-4 4v1.9H8V12h1.9v9h3.7z"/><path d="M13.6 21v-9h2.5l.3-3.1h-2.8V7.3c0-.8.1-1.2 1.2-1.2h1.6V3h-2.5c-3 0-4 1.5-4 4v1.9H8V12h1.9v9h3.7z"/></symbol><symbol id="graduation"><path d="M21.83 8.79c.813-.346.813-1.497 0-1.842l-7.877-3.342a5 5 0 00-3.906 0L2.17 6.948c-.813.345-.813 1.496 0 1.841L12 12.96l9.83-4.17z"/><path d="M12 14.487l-6.666-2.828v5.669s2.767 1.778 6.667 1.778c.963 0 1.856-.109 2.657-.272V13.36L12 14.487zM18.667 11.659l-2.604 1.104v5.707c1.62-.51 2.604-1.142 2.604-1.142v-5.67z"/><path d="M14.657 21.275a.703.703 0 001.406 0V18.47c-.426.134-.897.26-1.406.364v2.44z"/></symbol><symbol id="info" viewBox="0 0 24 24"><path d="M12 3c5 0 9 4 9 9s-4 9-9 9-9-4-9-9 4-9 9-9zm1.1 11.2h-2.2v2.2h2.2v-2.2zm0-6.7h-2.2V12h2.2V7.5z"/></symbol><symbol id="instagram" viewBox="0 0 24 24"><path d="M11 3h1.6c2.4 0 2.8 0 3.8.1 1.1 0 1.7.2 2 .4.5.2.9.4 1.3.8s.6.8.8 1.3c.2.4.3 1 .4 2 0 1 .1 1.4.1 3.3v2.2c0 1.9 0 2.3-.1 3.3 0 1.1-.2 1.7-.4 2-.2.5-.4.9-.8 1.3s-.7.6-1.3.8c-.4.2-1 .3-2 .4-1 0-1.4.1-3.6.1h-1.7c-2.2 0-2.5 0-3.6-.1-1.1 0-1.7-.2-2-.4-.5-.2-.9-.4-1.3-.8s-.6-.7-.8-1.2c-.2-.4-.3-1-.4-2v-5.6c0-1.9 0-2.3.1-3.3 0-1.1.2-1.7.4-2 .1-.6.4-1 .8-1.3.3-.4.7-.7 1.2-.9.4-.2 1-.3 2-.4H11zm1 3.4c-3.1 0-5.6 2.5-5.6 5.6s2.5 5.6 5.6 5.6 5.6-2.5 5.6-5.6c0-3-2.4-5.5-5.4-5.6H12zm0 1.9c2 0 3.7 1.6 3.7 3.7 0 2-1.6 3.7-3.7 3.7-2 0-3.7-1.6-3.7-3.7 0-2 1.7-3.7 3.7-3.7zm5.9-3.5c-.7 0-1.3.6-1.3 1.3 0 .7.6 1.3 1.3 1.3.7 0 1.3-.6 1.3-1.3s-.6-1.3-1.3-1.3z"/><path d="M11 3h1.6c2.4 0 2.8 0 3.8.1 1.1 0 1.7.2 2 .4.5.2.9.4 1.3.8s.6.8.8 1.3c.2.4.3 1 .4 2 0 1 .1 1.4.1 3.3v2.2c0 1.9 0 2.3-.1 3.3 0 1.1-.2 1.7-.4 2-.2.5-.4.9-.8 1.3s-.7.6-1.3.8c-.4.2-1 .3-2 .4-1 0-1.4.1-3.6.1h-1.7c-2.2 0-2.5 0-3.6-.1-1.1 0-1.7-.2-2-.4-.5-.2-.9-.4-1.3-.8s-.6-.7-.8-1.2c-.2-.4-.3-1-.4-2v-5.6c0-1.9 0-2.3.1-3.3 0-1.1.2-1.7.4-2 .1-.6.4-1 .8-1.3.3-.4.7-.7 1.2-.9.4-.2 1-.3 2-.4H11zm1 3.4c-3.1 0-5.6 2.5-5.6 5.6s2.5 5.6 5.6 5.6 5.6-2.5 5.6-5.6c0-3-2.4-5.5-5.4-5.6H12zm0 1.9c2 0 3.7 1.6 3.7 3.7 0 2-1.6 3.7-3.7 3.7-2 0-3.7-1.6-3.7-3.7 0-2 1.7-3.7 3.7-3.7zm5.9-3.5c-.7 0-1.3.6-1.3 1.3 0 .7.6 1.3 1.3 1.3.7 0 1.3-.6 1.3-1.3s-.6-1.3-1.3-1.3z"/></symbol><symbol id="linkedin" viewBox="0 0 24 24"><path d="M7.1 8.6v11.6H3.2V8.6h3.9zm9.5-.3c2.5 0 4.4 1.7 4.4 5.2v6.6h-3.9V14c0-1.6-.6-2.6-2-2.6-1.1 0-1.7.7-2 1.4-.1.2-.1.6-.1.9v6.5H9.2s.1-10.5 0-11.6h3.9v1.6c.5-.8 1.4-1.9 3.5-1.9zM5.2 3c1.3 0 2.1.9 2.2 2 0 1.1-.8 2-2.2 2C3.8 7 3 6.1 3 5s.9-2 2.2-2z"/><path d="M7.1 8.6v11.6H3.2V8.6h3.9zm9.5-.3c2.5 0 4.4 1.7 4.4 5.2v6.6h-3.9V14c0-1.6-.6-2.6-2-2.6-1.1 0-1.7.7-2 1.4-.1.2-.1.6-.1.9v6.5H9.2s.1-10.5 0-11.6h3.9v1.6c.5-.8 1.4-1.9 3.5-1.9zM5.2 3c1.3 0 2.1.9 2.2 2 0 1.1-.8 2-2.2 2C3.8 7 3 6.1 3 5s.9-2 2.2-2z"/></symbol><symbol id="magnifying-glass" viewBox="0 0 24 24"><path d="M11 4c-3.9 0-7 3.1-7 7s3.1 7 7 7c1.2 0 2.3-.3 3.3-.8l.3.3 2 2c.5.6 1.3.8 2 .6.7-.2 1.3-.8 1.5-1.5.2-.7-.1-1.5-.6-2l-2-2-.3-.3c.5-1 .9-2.1.9-3.3-.1-3.9-3.2-7-7.1-7zm0 2c2.8 0 5 2.2 5 5 0 1.3-.5 2.5-1.3 3.4l-.1.1-.3.3c-.8.8-2 1.2-3.3 1.2-2.8 0-5-2.2-5-5s2.2-5 5-5z"/><path d="M11 4c-3.9 0-7 3.1-7 7s3.1 7 7 7c1.2 0 2.3-.3 3.3-.8l.3.3 2 2c.5.6 1.3.8 2 .6.7-.2 1.3-.8 1.5-1.5.2-.7-.1-1.5-.6-2l-2-2-.3-.3c.5-1 .9-2.1.9-3.3-.1-3.9-3.2-7-7.1-7zm0 2c2.8 0 5 2.2 5 5 0 1.3-.5 2.5-1.3 3.4l-.1.1-.3.3c-.8.8-2 1.2-3.3 1.2-2.8 0-5-2.2-5-5s2.2-5 5-5z"/></symbol><symbol id="map-marker" viewBox="0 0 24 24"><path d="M11.8 3C8 3 5 6 5 9.8 5 14.2 11.8 21 11.8 21s6.8-6.8 6.8-11.2C18.5 6 15.5 3 11.8 3zm0 2.2c2.5 0 4.5 2 4.5 4.5s-2 4.5-4.5 4.5-4.5-2-4.5-4.5c-.1-2.4 2-4.5 4.5-4.5z"/><path d="M11.8 3C8 3 5 6 5 9.8 5 14.2 11.8 21 11.8 21s6.8-6.8 6.8-11.2C18.5 6 15.5 3 11.8 3zm0 2.2c2.5 0 4.5 2 4.5 4.5s-2 4.5-4.5 4.5-4.5-2-4.5-4.5c-.1-2.4 2-4.5 4.5-4.5z"/></symbol><symbol id="media-play" viewBox="0 0 24 24"><path d="M3 3v18l18-9z"/><path d="M3 3v18l18-9z"/></symbol><symbol id="menu" viewBox="0 0 24 24"><path d="M3 4v2.2h18V4H3zm0 6.7v2.2h18v-2.2H3zm0 6.7v2.2h18v-2.2H3z"/><path d="M3 4v2.2h18V4H3zm0 6.7v2.2h18v-2.2H3zm0 6.7v2.2h18v-2.2H3z"/></symbol><symbol id="monitor"><path fill-rule="evenodd" clip-rule="evenodd" d="M2.273 3.52a1.333 1.333 0 01.907-1.333h.027a1.33 1.33 0 01.16 0c.08-.007.16-.007.24 0h18.666c.737 0 1.334.597 1.334 1.334v13.333c0 .736-.597 1.333-1.334 1.333h-6.666v2.667h2.666c1.467 0 2.667 1.2 2.667 2.667h-16c0-1.467 1.2-2.667 2.667-2.667h2.666v-2.667H3.607a1.333 1.333 0 01-1.334-1.333V3.521zM20.94 4.855h-16v10.667h16V4.854z"/></symbol><symbol id="person" viewBox="0 0 24 24"><path d="M12 3C9.5 3 7.5 5.5 7.5 8.6s2 5.6 4.5 5.6 4.5-2.5 4.5-5.6S14.5 3 12 3zM7.3 14.2c-2.4.2-4.3 2.1-4.3 4.6V21h18v-2.2c0-2.4-1.9-4.4-4.3-4.5-1.2 1.4-2.9 2.2-4.7 2.2s-3.5-.9-4.7-2.3z"/><path d="M12 3C9.5 3 7.5 5.5 7.5 8.6s2 5.6 4.5 5.6 4.5-2.5 4.5-5.6S14.5 3 12 3zM7.3 14.2c-2.4.2-4.3 2.1-4.3 4.6V21h18v-2.2c0-2.4-1.9-4.4-4.3-4.5-1.2 1.4-2.9 2.2-4.7 2.2s-3.5-.9-4.7-2.3z"/></symbol><symbol id="phone"><path fill-rule="evenodd" clip-rule="evenodd" d="M6.524 1.566a.49.49 0 00-.507.507v20.346a.49.49 0 00.507.507h12.347a.49.49 0 00.507-.507V2.073a.49.49 0 00-.507-.507H6.524zm2.16 2.667h8v13.333h-8V4.233zm5.334 16a1.32 1.32 0 00-1.334-1.334 1.32 1.32 0 00-1.333 1.334 1.32 1.32 0 001.333 1.333 1.32 1.32 0 001.334-1.333z"/><mask id="a" maskUnits="userSpaceOnUse" x="6" y="1" width="14" height="22"><path fill-rule="evenodd" clip-rule="evenodd" d="M6.524 1.566a.49.49 0 00-.507.507v20.346a.49.49 0 00.507.507h12.347a.49.49 0 00.507-.507V2.073a.49.49 0 00-.507-.507H6.524zm2.16 2.667h8v13.333h-8V4.233zm5.334 16a1.32 1.32 0 00-1.334-1.334 1.32 1.32 0 00-1.333 1.334 1.32 1.32 0 001.333 1.333 1.32 1.32 0 001.334-1.333z"/></mask></symbol><symbol id="pie-chart"><path fill-rule="evenodd" clip-rule="evenodd" d="M11.403 1.942c-2.587 0-4.907 1.066-6.587 2.746l7.92 7.92V2.022c-.426-.054-.88-.08-1.333-.08zm4 2.826v9.094L8.15 21.115c1.626 1.333 3.653 2.16 5.92 2.16 5.146 0 9.333-4.187 9.333-9.333 0-4.694-3.493-8.507-8-9.174zM2.07 13.942c0-2.24.933-4.24 2.426-5.68l6.347 6.24-5.68 5.68c-1.867-1.467-3.093-3.68-3.093-6.24z"/></symbol><symbol id="plus"><mask id="a" style="mask-type:alpha" maskUnits="userSpaceOnUse" x="1" y="1" width="22" height="22"><path d="M9.333 1.598v8h-8v5.333h8v8h5.334v-8h8V9.598h-8v-8H9.333z"/></mask><g mask="url(#a)"><rect y=".264" width="24" height="24" rx="4"/></g></symbol><symbol id="spreadsheet"><path fill-rule="evenodd" clip-rule="evenodd" d="M3.385 3.485c-1.093 0-2 .906-2 2V20.15c0 1.094.907 2 2 2H20.72c1.093 0 2-.906 2-2V5.485c0-1.094-.907-2-2-2H3.385zm.667 2.666H6.72v2.667H4.052V6.15zm16 0H9.386v2.667h10.666V6.15zm-16 5.334H6.72v2.666H4.052v-2.666zm16 0H9.386v2.666h10.666v-2.666zm-16 5.333H6.72v2.667H4.052v-2.667zm16 0H9.386v2.667h10.666v-2.667z"/></symbol><symbol id="tag"><use fill-rule="nonzero" xlink:href="#a"/></symbol><symbol id="trash"><path fill-rule="evenodd" clip-rule="evenodd" d="M8.912 4.754c0-1.467 1.2-2.667 2.667-2.667h2.666c1.467 0 2.667 1.2 2.667 2.667h2.667c1.466 0 2.666 1.2 2.666 2.666H3.58c0-1.466 1.2-2.666 2.666-2.666h2.667zm-2.667 18.16V10.087H8.94v9.334a1.32 1.32 0 001.333 1.333 1.32 1.32 0 001.333-1.334v-9.333h2.667v9.334a1.32 1.32 0 001.333 1.333 1.32 1.32 0 001.334-1.334v-9.333h2.666v12.827a.49.49 0 01-.506.506H6.752a.49.49 0 01-.507-.506z"/></symbol><symbol id="twitter" viewBox="0 0 24 24"><path d="M11.7 9v.6l-.7-.1c-2.4-.3-4.4-1.3-6.2-3l-.7-.9-.2.7c-.5 1.4-.2 2.9.8 3.9.5.6.4.6-.5.3-.3-.1-.6-.2-.6-.1-.1.1.2 1.3.5 1.8.3.7 1 1.3 1.8 1.7l.5.1h-.8c-.7 0-.8 0-.7.3.3.9 1.3 1.8 2.4 2.2l.8.3-.7.4c-1 .6-2.3.9-3.5 1-.6 0-1.1.1-1.1.1 0 .1 1.6.9 2.5 1.2 2.8.9 6.1.5 8.5-1 1.8-1 3.5-3.1 4.3-5.1.4-1.1.9-3 .9-3.9 0-.6 0-.7.8-1.4.4-.4.8-.9.9-1 .1-.2.1-.2-.5 0-1.1.4-1.3.3-.7-.2.4-.4.9-1.2.9-1.4 0 0-.2 0-.4.1s-.8.3-1.1.4l-.7.2-.6-.4c-.4-.2-.8-.5-1.1-.6-.7-.2-1.7-.2-2.3.1-1.5.5-2.6 2-2.5 3.7z"/><path d="M11.7 9v.6l-.7-.1c-2.4-.3-4.4-1.3-6.2-3l-.7-.9-.2.7c-.5 1.4-.2 2.9.8 3.9.5.6.4.6-.5.3-.3-.1-.6-.2-.6-.1-.1.1.2 1.3.5 1.8.3.7 1 1.3 1.8 1.7l.5.1h-.8c-.7 0-.8 0-.7.3.3.9 1.3 1.8 2.4 2.2l.8.3-.7.4c-1 .6-2.3.9-3.5 1-.6 0-1.1.1-1.1.1 0 .1 1.6.9 2.5 1.2 2.8.9 6.1.5 8.5-1 1.8-1 3.5-3.1 4.3-5.1.4-1.1.9-3 .9-3.9 0-.6 0-.7.8-1.4.4-.4.8-.9.9-1 .1-.2.1-.2-.5 0-1.1.4-1.3.3-.7-.2.4-.4.9-1.2.9-1.4 0 0-.2 0-.4.1s-.8.3-1.1.4l-.7.2-.6-.4c-.4-.2-.8-.5-1.1-.6-.7-.2-1.7-.2-2.3.1-1.5.5-2.6 2-2.5 3.7z"/></symbol><symbol id="youtube" viewBox="0 0 24 24"><path d="M12.3 6c.7 0 2.4 0 4.1.1h.5c.5 0 .9 0 1.4.1.4 0 1.1 0 1.8.8.5.6.7 1.8.7 1.8v.1c0 .3.2 1.6.2 2.9v1.4c0 1.5-.2 3-.2 3s-.2 1.3-.7 1.8c-.7.7-1.5.7-1.8.8-.6 0-1.2.1-1.9.1h-.5c-1.7.1-3.3.1-3.8.1h-.2c-.3 0-1.7 0-3.2-.1h-.5c-1 0-1.9-.1-2.4-.1-.4-.1-1.3-.1-2-.8-.5-.6-.7-1.8-.7-1.8s-.1-1.5-.1-3v-1.6c0-1.2.1-2.4.2-2.7v-.1s.2-1.3.7-1.8c.7-.7 1.5-.7 1.8-.8.4 0 .9-.1 1.4-.1h.5C9.3 6 11 6 11.7 6h.6zm-2.2 3.7v5.2l4.9-2.6-4.9-2.6z"/><path d="M12.3 6c.7 0 2.4 0 4.1.1h.5c.5 0 .9 0 1.4.1.4 0 1.1 0 1.8.8.5.6.7 1.8.7 1.8v.1c0 .3.2 1.6.2 2.9v1.4c0 1.5-.2 3-.2 3s-.2 1.3-.7 1.8c-.7.7-1.5.7-1.8.8-.6 0-1.2.1-1.9.1h-.5c-1.7.1-3.3.1-3.8.1h-.2c-.3 0-1.7 0-3.2-.1h-.5c-1 0-1.9-.1-2.4-.1-.4-.1-1.3-.1-2-.8-.5-.6-.7-1.8-.7-1.8s-.1-1.5-.1-3v-1.6c0-1.2.1-2.4.2-2.7v-.1s.2-1.3.7-1.8c.7-.7 1.5-.7 1.8-.8.4 0 .9-.1 1.4-.1h.5C9.3 6 11 6 11.7 6h.6zm-2.2 3.7v5.2l4.9-2.6-4.9-2.6z"/></symbol></svg>